<svg width="84" height="98" viewBox="0 0 84 98" fill="none" xmlns="http://www.w3.org/2000/svg">
<path d="M59.434 72.8746C61.6295 70.69 65.1834 70.6957 67.3719 72.8873C69.5603 75.0789 69.5546 78.6264 67.3591 80.811L57.6101 90.5113C48.6158 99.4609 33.9492 99.5907 24.8033 90.8128C24.7504 90.7623 20.6779 86.7832 7.24319 73.6559C-1.69462 64.923 -2.58504 50.9492 5.82568 41.9756L21.5074 25.2436C29.8549 16.3366 45.2423 15.3631 54.7865 23.0542L69.0292 34.5322C71.4412 36.4759 71.8179 40.0035 69.8707 42.4112C67.9234 44.8189 64.3896 45.1949 61.9776 43.2512L47.7349 31.7733C42.7435 27.751 34.0121 28.3034 29.7051 32.8991L14.0232 49.6313C9.92862 53.9999 10.3771 61.0375 15.0957 65.648C24.9611 75.2876 32.5643 82.7164 32.5731 82.7249C37.328 87.2884 45.0164 87.2204 49.685 82.575L59.434 72.8746Z" fill="#FFA116"/>
<path fill-rule="evenodd" clip-rule="evenodd" d="M36.9918 63.1682C33.8919 63.1682 31.3789 60.6597 31.3789 57.5653C31.3789 54.4709 33.8919 51.9624 36.9918 51.9624H78.3869C81.4868 51.9624 83.9998 54.4709 83.9998 57.5653C83.9998 60.6597 81.4868 63.1682 78.3869 63.1682H36.9918Z" fill="#B3B3B3"/>
<path fill-rule="evenodd" clip-rule="evenodd" d="M43.5033 1.77511C45.6211 -0.484558 49.1731 -0.602621 51.4368 1.51141C53.7005 3.62544 53.8188 7.17102 51.7009 9.43069L14.0233 49.6321C9.92865 54.0003 10.3771 61.0379 15.0954 65.6486L32.4955 82.6508C34.7107 84.8154 34.7487 88.3627 32.5802 90.574C30.4117 92.7853 26.8581 92.8232 24.6428 90.6586L7.24266 73.6563C-1.69462 64.923 -2.58504 50.9492 5.82605 41.9762L43.5033 1.77511Z" fill="black"/>
</svg>
